<svg xmlns="http://www.w3.org/2000/svg" width="1200" height="630" viewBox="0 0 1200 630" role="img" aria-labelledby="title desc">
	<title id="title">TalkType social preview</title>
	<desc id="desc">TalkType voice-to-text app preview with the pink ghost mascot.</desc>
	<defs>
		<linearGradient id="background" x1="0" x2="1" y1="0" y2="1">
			<stop offset="0" stop-color="#fffaf0" />
			<stop offset="0.52" stop-color="#fff6e6" />
			<stop offset="1" stop-color="#fff0f7" />
		</linearGradient>
		<linearGradient id="ghostFill" x1="0" x2="1" y1="0" y2="1">
			<stop offset="0" stop-color="#ff4fb0" />
			<stop offset="0.58" stop-color="#ff8a7c" />
			<stop offset="1" stop-color="#ffd94a" />
		</linearGradient>
		<filter id="ghostGlow" x="-25%" y="-25%" width="150%" height="150%">
			<feDropShadow dx="0" dy="18" stdDeviation="18" flood-color="#f472b6" flood-opacity="0.28" />
			<feDropShadow dx="0" dy="0" stdDeviation="18" flood-color="#67e8f9" flood-opacity="0.18" />
		</filter>
		<filter id="softShadow" x="-20%" y="-20%" width="140%" height="140%">
			<feDropShadow dx="0" dy="14" stdDeviation="16" flood-color="#111827" flood-opacity="0.11" />
		</filter>
	</defs>

	<rect width="1200" height="630" fill="url(#background)" />
	<path d="M0 520 C220 486 380 576 585 535 C820 488 930 510 1200 468 L1200 630 L0 630 Z" fill="#fff1df" opacity="0.72" />
	<path d="M0 566 C205 530 375 608 585 568 C808 526 975 548 1200 510" fill="none" stroke="#fbcfe8" stroke-width="3" opacity="0.72" />
	<path d="M0 86 C210 52 376 110 574 74 C774 38 949 56 1200 24" fill="none" stroke="#fde68a" stroke-width="4" opacity="0.48" />

	<g transform="translate(78 116)">
		<text x="0" y="0" font-family="Arial Black, Arial, sans-serif" font-size="92" font-weight="900" fill="#050505" letter-spacing="-4">
			TalkType<tspan fill="#f472b6" font-size="58">.app</tspan>
		</text>
		<text x="4" y="74" font-family="Arial, sans-serif" font-size="38" font-weight="700" fill="#374151" letter-spacing="-0.5">
			Voice-to-text that doesn't suck.
		</text>
		<text x="4" y="126" font-family="Arial, sans-serif" font-size="28" font-weight="500" fill="#4b5563">
			Fast live transcription, private offline mode,
		</text>
		<text x="4" y="165" font-family="Arial, sans-serif" font-size="28" font-weight="500" fill="#4b5563">
			and editable text in one tiny ghost app.
		</text>

		<g transform="translate(4 228)" filter="url(#softShadow)">
			<rect x="0" y="0" width="212" height="58" rx="29" fill="#ffd23f" />
			<text x="106" y="38" text-anchor="middle" font-family="Arial, sans-serif" font-size="24" font-weight="800" fill="#111827">always free</text>
		</g>
		<g transform="translate(236 228)" filter="url(#softShadow)">
			<rect x="0" y="0" width="238" height="58" rx="29" fill="#f9a8d4" />
			<text x="119" y="38" text-anchor="middle" font-family="Arial, sans-serif" font-size="24" font-weight="800" fill="#111827">live captions</text>
		</g>
		<g transform="translate(494 228)" filter="url(#softShadow)">
			<rect x="0" y="0" width="212" height="58" rx="29" fill="#99f6e4" />
			<text x="106" y="38" text-anchor="middle" font-family="Arial, sans-serif" font-size="24" font-weight="800" fill="#111827">offline mode</text>
		</g>
	</g>

	<g transform="translate(738 54) scale(0.32)" filter="url(#ghostGlow)">
		<path
			d="M513.4044 867.4816C500.6388 868.908 488.3318 868.1943 476.0097 867.8661 446.4629 867.0788 417.8846 859.6104 388.802 855.6819 370.1495 853.1622 352.1126 857.5746 334.5111 863.8221 315.3684 870.6167 297.1615 879.7915 277.7215 885.8289 254.6815 892.9843 231.2322 897.4135 207.0218 896.261 189.0478 895.4055 171.9905 891.3179 158.3564 878.566 147.2089 868.14 141.5291 854.8829 139.6247 839.8478 137.2646 821.2147 142.4835 803.9923 148.9344 786.8955 156.5051 766.831 164.5964 746.9256 168.85 725.7659 174.4321 697.9977 173.6657 670.3371 168.1869 642.6301 163.9475 621.1907 156.4862 600.6994 150.4622 579.7854 143.6385 556.0949 139.16 532.0381 137.5049 507.3727 131.0646 411.3974 157.5812 325.3682 215.9256 249.3 256.1179 196.898 307.3356 158.4454 368.503 133.3541 400.5316 120.2156 433.7682 111.8377 468.0987 107.5194 487.1343 105.1251 506.2304 104.0158 525.362 104.8277 596.5383 107.8482 662.7047 127.2777 722.2099 167.0113 803.8105 221.4986 856.0472 296.7438 879.3004 392.0611 884.1849 412.0834 887.1147 432.3895 888.555 452.9944 889.72 469.6605 889.9832 486.3405 889.0471 502.9134 886.7521 543.5408 877.6209 582.8028 862.4445 620.5801 840.6346 674.8691 809.0726 722.769 765.8799 762.2941 714.6325 809.1897 656.007 842.916 587.3282 857.5009 563.0798 862.6504 538.7532 867.0513 513.4044 867.4816z"
			fill="url(#ghostFill)"
			stroke="#050505"
			stroke-width="50"
			stroke-linejoin="round"
		/>
		<path fill="#050505" d="M445.338440,471.851562 C443.176758,493.788635 436.942841,513.715637 422.903229,530.550293 C414.712860,540.371216 404.428955,546.983215 391.426178,547.988098 C380.129303,548.861206 370.128235,544.991821 361.551147,537.658081 C346.242279,524.568481 338.807251,507.057800 334.925110,487.966980 C330.108337,464.279877 331.868622,440.935730 341.490295,418.566833 C348.688934,401.831055 359.017548,387.645721 377.318176,381.896362 C395.780701,376.096130 410.714722,383.333527 422.873901,396.788544 C435.662811,410.940399 441.511841,428.347931 444.441101,446.954803 C445.723877,455.103149 445.097168,463.233063 445.338440,471.851562 z" />
		<path fill="#050505" d="M580.705505,471.768982 C579.774292,452.215668 582.605713,433.818390 590.797302,416.428589 C595.017090,407.470551 600.340088,399.277374 607.772888,392.579346 C627.716553,374.607117 653.145935,376.202209 670.873657,396.487671 C682.259460,409.516235 688.856201,424.818604 691.954407,441.620636 C696.671631,467.203156 693.889832,491.915649 682.163452,515.365479 C678.942444,521.806519 674.902405,527.726013 669.904602,532.915588 C649.577148,554.023315 621.761536,553.062683 602.886780,530.571594 C591.909119,517.490662 585.759705,502.182648 582.712219,485.533203 C581.906189,481.129486 581.375549,476.675323 580.705505,471.768982 z" />
	</g>

	<text x="82" y="560" font-family="Arial, sans-serif" font-size="26" font-weight="700" fill="#374151">
		Tap the ghost. Speak. Get editable text.
	</text>
</svg>
